<svg id="file" xmlns="http://www.w3.org/2000/svg" width="32.27" height="40.337" viewBox="0 0 32.27 40.337">
  <path id="Path_4500" data-name="Path 4500" d="M87.53,16H67.361A3.365,3.365,0,0,0,64,19.361V52.976a3.365,3.365,0,0,0,3.361,3.361H92.908a3.365,3.365,0,0,0,3.361-3.361V24.74a.672.672,0,0,0-.2-.475L88.005,16.2A.672.672,0,0,0,87.53,16Zm7.4,36.976a2.019,2.019,0,0,1-2.017,2.017H67.361a2.019,2.019,0,0,1-2.017-2.017V19.361a2.019,2.019,0,0,1,2.017-2.017h19.5v4.706a3.365,3.365,0,0,0,3.361,3.361h4.706ZM88.2,18.3l5.772,5.772H90.219A2.019,2.019,0,0,1,88.2,22.051Z" transform="translate(-64 -16)" fill="#595f51"/>
  <path id="Path_4501" data-name="Path 4501" d="M170.017,232a2.017,2.017,0,1,0,2.017,2.017A2.017,2.017,0,0,0,170.017,232Zm0,2.689a.672.672,0,1,1,.672-.672A.672.672,0,0,1,170.017,234.689Z" transform="translate(-159.26 -213.848)" fill="#7ac52d"/>
  <path id="Path_4502" data-name="Path 4502" d="M234.017,232a2.017,2.017,0,1,0,2.017,2.017A2.017,2.017,0,0,0,234.017,232Zm0,2.689a.672.672,0,1,1,.672-.672A.672.672,0,0,1,234.017,234.689Z" transform="translate(-217.882 -213.848)" fill="#7ac52d"/>
  <path id="Path_4503" data-name="Path 4503" d="M298.017,232a2.017,2.017,0,1,0,2.017,2.017A2.017,2.017,0,0,0,298.017,232Zm0,2.689a.672.672,0,1,1,.672-.672A.672.672,0,0,1,298.017,234.689Z" transform="translate(-276.504 -213.848)" fill="#7ac52d"/>
</svg>
