<svg xmlns="http://www.w3.org/2000/svg" width="40.322" height="40.902" viewBox="0 0 40.322 40.902">
  <g id="_3883229_badge_certificate_education_school_icon" data-name="3883229_badge_certificate_education_school_icon" transform="translate(-28.766 -23.426)">
    <path id="Path_4727" data-name="Path 4727" d="M69.088,31.8a8.383,8.383,0,0,0-8.373-8.373h-17.8a1.086,1.086,0,0,0,0,2.172h17.8a6.208,6.208,0,0,1,6.2,6.2V55.955a6.2,6.2,0,0,1-6.2,6.2H44.426a6.208,6.208,0,0,1-6.2-6.2V31.8a8.383,8.383,0,0,0-8.373-8.373,1.086,1.086,0,1,0,0,2.172,6.208,6.208,0,0,1,6.2,6.2V55.955a8.383,8.383,0,0,0,8.373,8.373H60.715a8.373,8.373,0,0,0,8.373-8.373Z" transform="translate(0)" fill="#595f51"/>
    <path id="Path_4728" data-name="Path 4728" d="M202.771,25.6h.364a1.086,1.086,0,0,0,0-2.172h-.364a1.086,1.086,0,1,0,0,2.172Z" transform="translate(-163.528 -0.002)" fill="#595f51"/>
    <path id="Path_4729" data-name="Path 4729" d="M381.4,466.934a1.086,1.086,0,0,0,.809.756l1.65.362.363,1.65a1.086,1.086,0,0,0,1.829.535l4.39-4.39c.064,0,.129,0,.194,0s.13,0,.194,0l4.39,4.39a1.086,1.086,0,0,0,1.829-.535l.363-1.65,1.65-.362a1.086,1.086,0,0,0,.535-1.829l-4.39-4.39c0-.064.005-.129.005-.194a4.575,4.575,0,0,0-9.149,0c0,.065,0,.13,0,.194l-4.39,4.39A1.086,1.086,0,0,0,381.4,466.934Zm15.255-.94-.39.086a1.086,1.086,0,0,0-.828.828l-.086.39-2.2-2.2a4.612,4.612,0,0,0,1.3-1.3Zm-6.021-7.119a2.4,2.4,0,1,1-2.4,2.4A2.405,2.405,0,0,1,390.637,458.875Zm-3.819,4.917a4.612,4.612,0,0,0,1.3,1.3l-2.2,2.2-.086-.39a1.086,1.086,0,0,0-.828-.828l-.39-.086Z" transform="translate(-333.444 -409.746)" fill="#595f51"/>
    <path id="Path_4730" data-name="Path 4730" d="M632.833,153.774a1.086,1.086,0,0,0,0-2.172H632.5a1.086,1.086,0,1,0,0,2.172Z" transform="translate(-569.917 -121.215)" fill="#595f51"/>
    <path id="Path_4731" data-name="Path 4731" d="M259.184,153.774h16.944a1.086,1.086,0,0,0,0-2.172H259.184a1.086,1.086,0,1,0,0,2.172Z" transform="translate(-216.877 -121.215)" fill="#595f51"/>
    <path id="Path_4732" data-name="Path 4732" d="M259.184,267.768h.335a1.086,1.086,0,1,0,0-2.172h-.335a1.086,1.086,0,1,0,0,2.172Z" transform="translate(-216.877 -229.018)" fill="#595f51"/>
    <path id="Path_4733" data-name="Path 4733" d="M325.575,266.682a1.086,1.086,0,0,0,1.086,1.086h16.944a1.086,1.086,0,1,0,0-2.172H326.661A1.086,1.086,0,0,0,325.575,266.682Z" transform="translate(-280.69 -229.018)" fill="#7ac52d"/>
    <path id="Path_4734" data-name="Path 4734" d="M632.5,381.762h.335a1.086,1.086,0,1,0,0-2.172H632.5a1.086,1.086,0,1,0,0,2.172Z" transform="translate(-569.917 -336.821)" fill="#7ac52d"/>
    <path id="Path_4735" data-name="Path 4735" d="M259.184,381.762h16.944a1.086,1.086,0,1,0,0-2.172H259.184a1.086,1.086,0,1,0,0,2.172Z" transform="translate(-216.877 -336.821)" fill="#7ac52d"/>
  </g>
</svg>
