<svg id="usa-svgrepo-com" xmlns="http://www.w3.org/2000/svg" width="40.16" height="37.07" viewBox="0 0 40.16 37.07">
  <g id="Others">
    <g id="Group_1631" data-name="Group 1631">
      <rect id="Rectangle_558" data-name="Rectangle 558" width="40.159" height="4.109" fill="#595f51"/>
      <rect id="Rectangle_559" data-name="Rectangle 559" width="40.159" height="4.109" transform="translate(0 8.248)" fill="#595f51"/>
      <rect id="Rectangle_560" data-name="Rectangle 560" width="40.159" height="4.109" transform="translate(0 24.713)" fill="#595f51"/>
      <rect id="Rectangle_561" data-name="Rectangle 561" width="40.159" height="4.109" transform="translate(0 32.962)" fill="#595f51"/>
      <rect id="Rectangle_562" data-name="Rectangle 562" width="40.159" height="4.109" transform="translate(0 16.465)" fill="#595f51"/>
      <rect id="Rectangle_563" data-name="Rectangle 563" width="40.159" height="4.109" transform="translate(0 4.109)" fill="#fff"/>
      <rect id="Rectangle_564" data-name="Rectangle 564" width="40.159" height="4.109" transform="translate(0 12.357)" fill="#fff"/>
      <rect id="Rectangle_565" data-name="Rectangle 565" width="40.159" height="4.109" transform="translate(0 28.822)" fill="#fff"/>
      <rect id="Rectangle_566" data-name="Rectangle 566" width="40.159" height="4.109" transform="translate(0 20.605)" fill="#fff"/>
      <rect id="Rectangle_567" data-name="Rectangle 567" width="21.624" height="20.605" fill="#7ac52d"/>
      <path id="Path_4834" data-name="Path 4834" d="M8.317,4l.711,1.514,1.606.247L9.46,6.966l.278,1.668-1.421-.8-1.421.8.278-1.668L6,5.761l1.606-.247Z" transform="translate(-4.146 -2.764)" fill="#fff"/>
      <path id="Path_4835" data-name="Path 4835" d="M28.817,4l.711,1.514,1.606.247-1.143,1.2.247,1.668-1.421-.8-1.421.8.247-1.668L26.5,5.761l1.606-.247Z" transform="translate(-18.314 -2.764)" fill="#fff"/>
      <path id="Path_4836" data-name="Path 4836" d="M49.317,4l.711,1.514,1.606.247-1.174,1.2.278,1.668-1.421-.8-1.421.8.278-1.668L47,5.761l1.606-.247Z" transform="translate(-32.481 -2.764)" fill="#fff"/>
      <path id="Path_4837" data-name="Path 4837" d="M18.817,24l.711,1.514,1.606.247-1.143,1.2.247,1.668-1.421-.8-1.421.8.247-1.668-1.143-1.2,1.606-.247Z" transform="translate(-11.403 -16.586)" fill="#fff"/>
      <path id="Path_4838" data-name="Path 4838" d="M39.317,24l.711,1.514,1.606.247-1.174,1.2.278,1.668-1.421-.8-1.421.8.278-1.668L37,25.761l1.606-.247Z" transform="translate(-25.57 -16.586)" fill="#fff"/>
      <path id="Path_4839" data-name="Path 4839" d="M8.317,45.2l.711,1.514,1.606.247L9.46,48.135l.278,1.7-1.421-.8-1.421.8.278-1.7L6,46.961l1.606-.247Z" transform="translate(-4.146 -31.237)" fill="#fff"/>
      <path id="Path_4840" data-name="Path 4840" d="M28.817,45.2l.711,1.514,1.606.247-1.143,1.174.247,1.7-1.421-.8-1.421.8.247-1.7L26.5,46.961l1.606-.247Z" transform="translate(-18.314 -31.237)" fill="#fff"/>
      <path id="Path_4841" data-name="Path 4841" d="M49.317,45.2l.711,1.514,1.606.247L50.46,48.135l.278,1.7-1.421-.8-1.421.8.278-1.7L47,46.961l1.606-.247Z" transform="translate(-32.481 -31.237)" fill="#fff"/>
    </g>
  </g>
</svg>
