<svg xmlns="http://www.w3.org/2000/svg" width="36.928" height="40.851" viewBox="0 0 36.928 40.851">
  <g id="_7490089_travel_passport_and_ticket_adventure_icon" data-name="7490089_travel_passport_and_ticket_adventure_icon" transform="translate(-6.32 -6.157)">
    <path id="Path_4736" data-name="Path 4736" d="M41.12,10.134,28.686,6.288a3.024,3.024,0,0,0-3.764,1.99l-.464,1.492H9.321a3,3,0,0,0-3,3V38.4a3.014,3.014,0,0,0,3,3.017h6.267a2.937,2.937,0,0,0,1.791,1.525l12.75,3.929a2.789,2.789,0,0,0,.9.133,3.072,3.072,0,0,0,1.426-.348,3,3,0,0,0,1.459-1.807l2.586-8.671v-.033l6.632-22.283a3.017,3.017,0,0,0-2.006-3.73ZM9.321,40.276A1.871,1.871,0,0,1,7.447,38.4V12.771A1.882,1.882,0,0,1,9.321,10.9H27.177a1.89,1.89,0,0,1,1.89,1.84l.083,4.791.017,1.194L29.2,20.6l.066,4.228.017,1.426.017,1.127.116,6.6v.133l.066,4.261a1.869,1.869,0,0,1-1.89,1.907Zm23.51,4.261a1.952,1.952,0,0,1-.928,1.127,1.862,1.862,0,0,1-.879.216,2.1,2.1,0,0,1-.547-.083L17.71,41.867a1.8,1.8,0,0,1-.746-.448H27.592a3.039,3.039,0,0,0,2.155-.912,2.992,2.992,0,0,0,.862-2.155l-.05-3.531,4.692,1.542Zm.083-26.163,4.311,5.786-.149.58-4.36-3.465a.605.605,0,0,0-.531-.1.623.623,0,0,0-.365.4l-.879,3.216a.555.555,0,0,0,.033.4l1.161,2.487-.05.116-1.658-1.161-.083-4.924.133-.5a.556.556,0,0,0-.116-.531l-.033-.033-.05-2.387.879-.365a.559.559,0,0,0,.332-.365l.812-2.951c.3-1.127.862-1.376,1.111-1.442.182.182.531.68.232,1.807l-.812,2.951A.548.548,0,0,0,32.914,18.374Zm9.119-4.841L35.583,35.269l-5.057-1.625-.083-5.637L32.1,29.184a.6.6,0,0,0,.332.1.388.388,0,0,0,.182-.033.541.541,0,0,0,.348-.381l.315-1.094a.659.659,0,0,0-.033-.4L32.085,24.89l.6-2.188,4.36,3.449a.606.606,0,0,0,.531.1.561.561,0,0,0,.365-.381l.448-1.675a.548.548,0,0,0-.083-.481l-4.311-5.786.729-2.686c.663-2.387-.846-3.167-.912-3.183a.407.407,0,0,0-.2-.066c-.083,0-1.741-.116-2.4,2.288l-.729,2.686-.216.083-.066-4.327a3.026,3.026,0,0,0-3.017-2.951H25.635L26,8.609A1.872,1.872,0,0,1,26.928,7.5a1.967,1.967,0,0,1,.879-.216,2.1,2.1,0,0,1,.547.083l12.435,3.846a1.87,1.87,0,0,1,1.243,2.321Z" fill="#595f51"/>
    <path id="Path_4737" data-name="Path 4737" d="M26.624,24.623a.559.559,0,0,0,.564-.564.57.57,0,0,0-.564-.564H8.354a.57.57,0,0,0-.564.564.559.559,0,0,0,.564.564Z" transform="translate(0.967 11.408)" fill="#595f51"/>
    <path id="Path_4738" data-name="Path 4738" d="M9.84,23.859a8.261,8.261,0,0,0,6.565,3.963,1.61,1.61,0,0,0,.282.017.354.354,0,0,0,.133,0,.46.46,0,0,0,.149.017c.1,0,.216-.017.315-.017a1.8,1.8,0,0,0,.3-.017A8.28,8.28,0,0,0,24.1,23.859a.4.4,0,0,0,.1-.133c0-.017.017-.017.017-.033.05-.083.083-.149.133-.232,0-.017.017-.017.017-.033a8.076,8.076,0,0,0,.531-1.227,8.318,8.318,0,0,0,.464-2.736c0-.216-.017-.431-.033-.647a8.1,8.1,0,0,0-.149-1.111,7.6,7.6,0,0,0-.315-1.045,8.01,8.01,0,0,0-.431-1.028,3.682,3.682,0,0,0-.249-.431v-.017a.7.7,0,0,0-.083-.116A8.219,8.219,0,0,0,22.192,12.9a6.742,6.742,0,0,0-.978-.663A8.367,8.367,0,0,0,9.757,15.188V15.2a8.3,8.3,0,0,0,0,8.522.36.36,0,0,0,.083.133ZM10.5,16.2a8.92,8.92,0,0,0,2.089.63,16.672,16.672,0,0,0-.216,2.636,16.3,16.3,0,0,0,.216,2.62,11.218,11.218,0,0,0-2.089.63A7.2,7.2,0,0,1,10.5,16.2Zm3,3.266a12.825,12.825,0,0,1,.216-2.437,19.558,19.558,0,0,0,2.686.216v4.443a20.214,20.214,0,0,0-2.686.216,12.826,12.826,0,0,1-.216-2.437Zm6.731-2.437a12.254,12.254,0,0,1,.2,1.592c0,.282.017.564.017.846a12.641,12.641,0,0,1-.216,2.421c-.249-.033-.514-.066-.779-.1-.381-.033-.763-.066-1.161-.083-.249-.017-.514-.017-.763-.017V17.244c.746-.017,1.492-.066,2.188-.149a4.824,4.824,0,0,0,.514-.066Zm-3.83,5.786v3.8A5.011,5.011,0,0,1,13.968,23a18.872,18.872,0,0,1,2.437-.183Zm1.625,3.548a2.435,2.435,0,0,1-.5.265V22.815h.414c.4.017.779.05,1.161.083.3.033.6.066.879.1a5.9,5.9,0,0,1-1.956,3.366Zm-.5-10.263V12.3a5.059,5.059,0,0,1,2.454,3.631,19.45,19.45,0,0,1-2.454.166Zm-1.127-3.78V16.1a18.976,18.976,0,0,1-2.437-.166,5.013,5.013,0,0,1,2.437-3.615ZM11.084,23.694a11.253,11.253,0,0,1,1.757-.514,9.129,9.129,0,0,0,1.343,3,7.351,7.351,0,0,1-3.1-2.487Zm8.7,2.47A9.447,9.447,0,0,0,21.114,23.2a9.994,9.994,0,0,1,1.741.5,7.236,7.236,0,0,1-3.067,2.47Zm4.261-8.306a6.389,6.389,0,0,1,.166,1.127,4.618,4.618,0,0,1,.017.481,7.168,7.168,0,0,1-.779,3.249,10.843,10.843,0,0,0-2.089-.629,16.261,16.261,0,0,0,.216-2.62c0-.182,0-.365-.017-.547v-.4q-.075-.871-.2-1.691c.265-.05.514-.1.763-.166a.017.017,0,0,0,.017-.017,6.733,6.733,0,0,0,1.31-.448,6.22,6.22,0,0,1,.381.912,4.918,4.918,0,0,1,.216.746Zm-3.183-4.51a6.971,6.971,0,0,1,.962.729,6.852,6.852,0,0,1,1.028,1.161,8,8,0,0,1-1.525.448c-.066.017-.149.033-.216.05a11.506,11.506,0,0,0-.514-1.509,8.422,8.422,0,0,0-.812-1.442,6.029,6.029,0,0,1,1.078.564Zm-6.682-.58a8.754,8.754,0,0,0-1.326,2.968,10.206,10.206,0,0,1-1.757-.5,7.048,7.048,0,0,1,3.084-2.471Z" transform="translate(1.487 3.236)" fill="#7ac52d"/>
  </g>
</svg>
