<svg xmlns="http://www.w3.org/2000/svg" width="40.721" height="37.504" viewBox="0 0 40.721 37.504">
  <g id="bank-svgrepo-com_1_" data-name="bank-svgrepo-com (1)" transform="translate(0 -559.122)">
    <g id="Group_1366" data-name="Group 1366" transform="translate(0 559.122)">
      <g id="Group_1365" data-name="Group 1365" transform="translate(0 0)">
        <path id="Path_4746" data-name="Path 4746" d="M40.078,981.6H.643a.643.643,0,0,0,0,1.286H40.078a.643.643,0,0,0,0-1.286Z" transform="translate(0 -945.379)" fill="#595f51"/>
        <path id="Path_4747" data-name="Path 4747" d="M52.643,920.583H83.231a.643.643,0,1,0,0-1.286H52.643a.643.643,0,1,0,0,1.286Z" transform="translate(-47.542 -888.42)" fill="#595f51"/>
        <path id="Path_4748" data-name="Path 4748" d="M52.643,696.427a.642.642,0,0,0,.643-.643V680.241a.643.643,0,0,0-1.286,0v15.542A.648.648,0,0,0,52.643,696.427Z" transform="translate(-47.542 -669.27)" fill="#595f51"/>
        <path id="Path_4749" data-name="Path 4749" d="M112.986,695.783V680.241a.643.643,0,0,0-1.286,0v15.542a.643.643,0,1,0,1.286,0Z" transform="translate(-102.124 -669.27)" fill="#595f51"/>
        <path id="Path_4750" data-name="Path 4750" d="M49.441,565.738H80.5a.643.643,0,0,0,.206-1.252l-15.491-5.332a.7.7,0,0,0-.42,0l-15.56,5.332a.643.643,0,0,0,.206,1.252Zm15.577-5.3,11.65,4.012H53.308Z" transform="translate(-44.615 -559.122)" fill="#595f51"/>
        <path id="Path_4751" data-name="Path 4751" d="M160.5,704.027a.648.648,0,0,0,.643.643h1.423a6.671,6.671,0,0,0,3.926,4.355,5.832,5.832,0,0,0,2.22.446,6,6,0,0,0,4.844-2.529.623.623,0,0,0-.12-.892.637.637,0,0,0-.9.137,4.645,4.645,0,0,1-5.555,1.655c-.009,0-.009,0-.017-.009a5.4,5.4,0,0,1-3.026-3.163h5.855a.643.643,0,0,0,0-1.286h-6.2a6.79,6.79,0,0,1-.077-.84,4.769,4.769,0,0,1,.017-.609h7.253a.643.643,0,0,0,0-1.286h-7.03a5.635,5.635,0,0,1,2.975-3.643c.009,0,.009-.009.017-.009a4.615,4.615,0,0,1,5.615,1.312.644.644,0,0,0,.977-.84,6.245,6.245,0,0,0-3.335-2.066,5.713,5.713,0,0,0-3.815.437,7,7,0,0,0-3.763,4.809h-1.217a.643.643,0,0,0,0,1.286h1.029c-.009.214-.017.429-.009.643.009.274.026.54.06.806h-1.149A.648.648,0,0,0,160.5,704.027Z" transform="translate(-146.741 -683.583)" fill="#7ac52d"/>
        <path id="Path_4752" data-name="Path 4752" d="M349.586,695.783V680.241a.643.643,0,1,0-1.286,0v15.542a.643.643,0,1,0,1.286,0Z" transform="translate(-318.441 -669.27)" fill="#595f51"/>
        <path id="Path_4753" data-name="Path 4753" d="M410.086,680.241a.643.643,0,1,0-1.286,0v15.542a.643.643,0,1,0,1.286,0Z" transform="translate(-373.754 -669.27)" fill="#595f51"/>
      </g>
    </g>
  </g>
</svg>
