<svg xmlns="http://www.w3.org/2000/svg" width="29.652" height="40.464" viewBox="0 0 29.652 40.464">
  <g id="test-exam-svgrepo-com" transform="translate(-68.408)">
    <g id="Group_1475" data-name="Group 1475" transform="translate(68.409)">
      <g id="Group_1474" data-name="Group 1474">
        <path id="Path_4779" data-name="Path 4779" d="M97.874,6.944,91.116.185A.633.633,0,0,0,90.668,0H70.394a1.987,1.987,0,0,0-1.985,1.985V38.479a1.987,1.987,0,0,0,1.985,1.985H96.075a1.987,1.987,0,0,0,1.985-1.985V7.392A.633.633,0,0,0,97.874,6.944ZM91.3,2.163,95.9,6.758H92.02A.719.719,0,0,1,91.3,6.04V2.163Zm5.491,36.316a.719.719,0,0,1-.718.718H70.394a.719.719,0,0,1-.718-.718V1.985a.719.719,0,0,1,.718-.718H90.035V6.04A1.987,1.987,0,0,0,92.02,8.025h4.773V38.479Z" transform="translate(-68.409)" fill="#595f51"/>
      </g>
    </g>
    <g id="Group_1477" data-name="Group 1477" transform="translate(81.249 8.11)">
      <g id="Group_1476" data-name="Group 1476">
        <path id="Path_4780" data-name="Path 4780" d="M238.883,110.515l-1.824-6.687a1.651,1.651,0,0,0-1.589-1.214h-1.155a1.651,1.651,0,0,0-1.589,1.214l-1.824,6.687a.634.634,0,0,0,1.223.333l.426-1.561h4.684l.426,1.561a.634.634,0,0,0,1.223-.333ZM232.9,108.02l1.052-3.859a.381.381,0,0,1,.367-.28h1.155a.381.381,0,0,1,.367.28l1.053,3.859Z" transform="translate(-230.879 -102.614)" fill="#7ac52d"/>
      </g>
    </g>
    <g id="Group_1479" data-name="Group 1479" transform="translate(90.035 10.813)">
      <g id="Group_1478" data-name="Group 1478">
        <path id="Path_4781" data-name="Path 4781" d="M345.381,138.17h-.718v-.718a.634.634,0,1,0-1.267,0v.718h-.718a.634.634,0,1,0,0,1.267h.718v.718a.634.634,0,1,0,1.267,0v-.718h.718a.634.634,0,1,0,0-1.267Z" transform="translate(-342.044 -136.818)" fill="#7ac52d"/>
      </g>
    </g>
    <g id="Group_1481" data-name="Group 1481" transform="translate(82.601 21.626)">
      <g id="Group_1480" data-name="Group 1480" transform="translate(0)">
        <path id="Path_4782" data-name="Path 4782" d="M258.078,273.637h-9.461a.634.634,0,1,0,0,1.267h9.461a.634.634,0,1,0,0-1.267Z" transform="translate(-247.983 -273.637)" fill="#595f51"/>
      </g>
    </g>
    <g id="Group_1483" data-name="Group 1483" transform="translate(82.601 24.329)">
      <g id="Group_1482" data-name="Group 1482" transform="translate(0)">
        <path id="Path_4783" data-name="Path 4783" d="M254.023,307.841h-5.406a.634.634,0,1,0,0,1.267h5.406a.634.634,0,1,0,0-1.267Z" transform="translate(-247.983 -307.841)" fill="#595f51"/>
      </g>
    </g>
    <g id="Group_1485" data-name="Group 1485" transform="translate(73.14 20.274)">
      <g id="Group_1484" data-name="Group 1484" transform="translate(0)">
        <path id="Path_4784" data-name="Path 4784" d="M135.4,256.687a.634.634,0,0,0-.893.069l-3.541,4.131-1.554-2.071a.634.634,0,0,0-1.014.76l2.027,2.7a.634.634,0,0,0,.486.253h.021a.633.633,0,0,0,.481-.221l4.055-4.731A.634.634,0,0,0,135.4,256.687Z" transform="translate(-128.267 -256.534)" fill="#7ac52d"/>
      </g>
    </g>
    <g id="Group_1487" data-name="Group 1487" transform="translate(82.601 29.735)">
      <g id="Group_1486" data-name="Group 1486" transform="translate(0)">
        <path id="Path_4785" data-name="Path 4785" d="M258.078,376.251h-9.461a.634.634,0,0,0,0,1.267h9.461a.634.634,0,1,0,0-1.267Z" transform="translate(-247.983 -376.251)" fill="#595f51"/>
      </g>
    </g>
    <g id="Group_1489" data-name="Group 1489" transform="translate(82.601 32.439)">
      <g id="Group_1488" data-name="Group 1488" transform="translate(0)">
        <path id="Path_4786" data-name="Path 4786" d="M254.023,410.455h-5.406a.634.634,0,1,0,0,1.267h5.406a.634.634,0,1,0,0-1.267Z" transform="translate(-247.983 -410.455)" fill="#595f51"/>
      </g>
    </g>
    <g id="Group_1491" data-name="Group 1491" transform="translate(73.14 28.384)">
      <g id="Group_1490" data-name="Group 1490" transform="translate(0)">
        <path id="Path_4787" data-name="Path 4787" d="M135.4,359.3a.634.634,0,0,0-.893.069l-3.541,4.131-1.554-2.071a.634.634,0,0,0-1.014.76l2.027,2.7a.633.633,0,0,0,.486.253h.021a.633.633,0,0,0,.481-.221l4.055-4.731A.634.634,0,0,0,135.4,359.3Z" transform="translate(-128.267 -359.148)" fill="#595f51"/>
      </g>
    </g>
    <g id="Group_1493" data-name="Group 1493" transform="translate(73.14 6.758)">
      <g id="Group_1492" data-name="Group 1492" transform="translate(0)">
        <path id="Path_4788" data-name="Path 4788" d="M135.659,85.511H128.9a.634.634,0,0,0,0,1.267h6.758a.634.634,0,0,0,0-1.267Z" transform="translate(-128.267 -85.511)" fill="#595f51"/>
      </g>
    </g>
    <g id="Group_1495" data-name="Group 1495" transform="translate(73.14 9.461)">
      <g id="Group_1494" data-name="Group 1494" transform="translate(0)">
        <path id="Path_4789" data-name="Path 4789" d="M132.955,119.716H128.9a.634.634,0,1,0,0,1.267h4.055a.634.634,0,0,0,0-1.267Z" transform="translate(-128.267 -119.716)" fill="#595f51"/>
      </g>
    </g>
  </g>
</svg>
