<svg id="test-svgrepo-com" xmlns="http://www.w3.org/2000/svg" width="40.455" height="40.455" viewBox="0 0 40.455 40.455">
  <g id="Group_2087" data-name="Group 2087" transform="translate(28.378)">
    <g id="Group_2086" data-name="Group 2086">
      <path id="Path_7001" data-name="Path 7001" d="M368.566,0h-6.757a2.663,2.663,0,0,0-2.66,2.66V9.417a2.663,2.663,0,0,0,2.66,2.66h6.757a2.663,2.663,0,0,0,2.66-2.66V2.66A2.664,2.664,0,0,0,368.566,0Zm1.394,9.417a1.4,1.4,0,0,1-1.394,1.394h-6.757a1.4,1.4,0,0,1-1.393-1.394V2.66a1.4,1.4,0,0,1,1.393-1.394h6.757A1.4,1.4,0,0,1,369.96,2.66Z" transform="translate(-359.149)" fill="#7ac52d"/>
    </g>
  </g>
  <g id="Group_2089" data-name="Group 2089" transform="translate(31.08 3.378)">
    <g id="Group_2088" data-name="Group 2088">
      <path id="Path_7002" data-name="Path 7002" d="M400.514,42.941a.633.633,0,0,0-.9,0l-3.606,3.606-1.579-1.579a.633.633,0,0,0-.9.9l2.027,2.027a.633.633,0,0,0,.9,0l4.054-4.054A.633.633,0,0,0,400.514,42.941Z" transform="translate(-393.352 -42.756)" fill="#7ac52d"/>
    </g>
  </g>
  <g id="Group_2091" data-name="Group 2091" transform="translate(28.378 14.189)">
    <g id="Group_2090" data-name="Group 2090">
      <path id="Path_7003" data-name="Path 7003" d="M368.566,179.574h-6.757a2.663,2.663,0,0,0-2.66,2.66v6.757a2.663,2.663,0,0,0,2.66,2.66h6.757a2.663,2.663,0,0,0,2.66-2.66v-6.757A2.664,2.664,0,0,0,368.566,179.574Zm1.394,9.417a1.4,1.4,0,0,1-1.394,1.394h-6.757a1.4,1.4,0,0,1-1.393-1.394v-6.757a1.4,1.4,0,0,1,1.393-1.394h6.757a1.4,1.4,0,0,1,1.394,1.394Z" transform="translate(-359.149 -179.574)" fill="#595f51"/>
    </g>
  </g>
  <g id="Group_2093" data-name="Group 2093" transform="translate(28.378 28.378)">
    <g id="Group_2092" data-name="Group 2092">
      <path id="Path_7004" data-name="Path 7004" d="M368.566,359.148h-6.757a2.663,2.663,0,0,0-2.66,2.66v6.757a2.663,2.663,0,0,0,2.66,2.66h6.757a2.663,2.663,0,0,0,2.66-2.66v-6.757A2.663,2.663,0,0,0,368.566,359.148Zm1.394,9.417a1.4,1.4,0,0,1-1.394,1.394h-6.757a1.4,1.4,0,0,1-1.393-1.394v-6.757a1.4,1.4,0,0,1,1.393-1.394h6.757a1.4,1.4,0,0,1,1.394,1.394Z" transform="translate(-359.149 -359.148)" fill="#7ac52d"/>
    </g>
  </g>
  <g id="Group_2095" data-name="Group 2095" transform="translate(31.08 31.756)">
    <g id="Group_2094" data-name="Group 2094">
      <path id="Path_7005" data-name="Path 7005" d="M400.514,402.089a.633.633,0,0,0-.9,0l-3.606,3.606-1.579-1.579a.633.633,0,0,0-.9.9l2.027,2.027a.633.633,0,0,0,.9,0l4.054-4.054A.633.633,0,0,0,400.514,402.089Z" transform="translate(-393.352 -401.904)" fill="#7ac52d"/>
    </g>
  </g>
  <g id="Group_2097" data-name="Group 2097" transform="translate(0 3.378)">
    <g id="Group_2096" data-name="Group 2096">
      <path id="Path_7006" data-name="Path 7006" d="M14.147,42.756H.633a.633.633,0,1,0,0,1.267H14.147a.633.633,0,1,0,0-1.267Z" transform="translate(0 -42.756)" fill="#595f51"/>
    </g>
  </g>
  <g id="Group_2099" data-name="Group 2099" transform="translate(16.216 3.378)">
    <g id="Group_2098" data-name="Group 2098">
      <path id="Path_7007" data-name="Path 7007" d="M213.293,42.756H205.86a.633.633,0,1,0,0,1.267h7.432a.633.633,0,1,0,0-1.267Z" transform="translate(-205.227 -42.756)" fill="#595f51"/>
    </g>
  </g>
  <g id="Group_2101" data-name="Group 2101" transform="translate(20.945 7.432)">
    <g id="Group_2100" data-name="Group 2100">
      <path id="Path_7008" data-name="Path 7008" d="M268.421,94.063h-2.7a.633.633,0,1,0,0,1.267h2.7a.633.633,0,0,0,0-1.267Z" transform="translate(-265.085 -94.063)" fill="#595f51"/>
    </g>
  </g>
  <g id="Group_2103" data-name="Group 2103" transform="translate(0 7.432)">
    <g id="Group_2102" data-name="Group 2102">
      <path id="Path_7009" data-name="Path 7009" d="M6.039,94.063H.633a.633.633,0,1,0,0,1.267H6.039a.633.633,0,1,0,0-1.267Z" transform="translate(0 -94.063)" fill="#595f51"/>
    </g>
  </g>
  <g id="Group_2105" data-name="Group 2105" transform="translate(8.108 7.432)">
    <g id="Group_2104" data-name="Group 2104">
      <path id="Path_7010" data-name="Path 7010" d="M113.381,94.063H103.246a.633.633,0,0,0,0,1.267h10.135a.633.633,0,0,0,0-1.267Z" transform="translate(-102.613 -94.063)" fill="#595f51"/>
    </g>
  </g>
  <g id="Group_2107" data-name="Group 2107" transform="translate(0 17.567)">
    <g id="Group_2106" data-name="Group 2106">
      <path id="Path_7011" data-name="Path 7011" d="M14.147,222.33H.633a.633.633,0,1,0,0,1.267H14.147a.633.633,0,1,0,0-1.267Z" transform="translate(0 -222.33)" fill="#595f51"/>
    </g>
  </g>
  <g id="Group_2109" data-name="Group 2109" transform="translate(16.216 17.567)">
    <g id="Group_2108" data-name="Group 2108">
      <path id="Path_7012" data-name="Path 7012" d="M213.293,222.33H205.86a.633.633,0,1,0,0,1.267h7.432a.633.633,0,1,0,0-1.267Z" transform="translate(-205.227 -222.33)" fill="#595f51"/>
    </g>
  </g>
  <g id="Group_2111" data-name="Group 2111" transform="translate(20.945 21.621)">
    <g id="Group_2110" data-name="Group 2110">
      <path id="Path_7013" data-name="Path 7013" d="M268.421,273.637h-2.7a.633.633,0,1,0,0,1.267h2.7a.633.633,0,0,0,0-1.267Z" transform="translate(-265.085 -273.637)" fill="#595f51"/>
    </g>
  </g>
  <g id="Group_2113" data-name="Group 2113" transform="translate(0 21.621)">
    <g id="Group_2112" data-name="Group 2112">
      <path id="Path_7014" data-name="Path 7014" d="M6.039,273.637H.633a.633.633,0,1,0,0,1.267H6.039a.633.633,0,1,0,0-1.267Z" transform="translate(0 -273.637)" fill="#595f51"/>
    </g>
  </g>
  <g id="Group_2115" data-name="Group 2115" transform="translate(8.108 21.621)">
    <g id="Group_2114" data-name="Group 2114">
      <path id="Path_7015" data-name="Path 7015" d="M113.381,273.637H103.246a.633.633,0,0,0,0,1.267h10.135a.633.633,0,0,0,0-1.267Z" transform="translate(-102.613 -273.637)" fill="#595f51"/>
    </g>
  </g>
  <g id="Group_2117" data-name="Group 2117" transform="translate(0 31.756)">
    <g id="Group_2116" data-name="Group 2116">
      <path id="Path_7016" data-name="Path 7016" d="M14.147,401.9H.633a.633.633,0,0,0,0,1.267H14.147a.633.633,0,0,0,0-1.267Z" transform="translate(0 -401.904)" fill="#595f51"/>
    </g>
  </g>
  <g id="Group_2119" data-name="Group 2119" transform="translate(16.216 31.756)">
    <g id="Group_2118" data-name="Group 2118">
      <path id="Path_7017" data-name="Path 7017" d="M213.293,401.9H205.86a.633.633,0,0,0,0,1.267h7.432a.633.633,0,0,0,0-1.267Z" transform="translate(-205.227 -401.904)" fill="#595f51"/>
    </g>
  </g>
  <g id="Group_2121" data-name="Group 2121" transform="translate(20.945 35.81)">
    <g id="Group_2120" data-name="Group 2120">
      <path id="Path_7018" data-name="Path 7018" d="M268.421,453.211h-2.7a.633.633,0,1,0,0,1.267h2.7a.633.633,0,0,0,0-1.267Z" transform="translate(-265.085 -453.211)" fill="#595f51"/>
    </g>
  </g>
  <g id="Group_2123" data-name="Group 2123" transform="translate(0 35.81)">
    <g id="Group_2122" data-name="Group 2122">
      <path id="Path_7019" data-name="Path 7019" d="M6.039,453.211H.633a.633.633,0,1,0,0,1.267H6.039a.633.633,0,1,0,0-1.267Z" transform="translate(0 -453.211)" fill="#595f51"/>
    </g>
  </g>
  <g id="Group_2125" data-name="Group 2125" transform="translate(8.108 35.81)">
    <g id="Group_2124" data-name="Group 2124">
      <path id="Path_7020" data-name="Path 7020" d="M113.381,453.211H103.246a.633.633,0,0,0,0,1.267h10.135a.633.633,0,0,0,0-1.267Z" transform="translate(-102.613 -453.211)" fill="#595f51"/>
    </g>
  </g>
  <g id="Group_2127" data-name="Group 2127" transform="translate(31.756 17.567)">
    <g id="Group_2126" data-name="Group 2126">
      <path id="Path_7021" data-name="Path 7021" d="M407.039,226.569l-1.579-1.579,1.579-1.579a.633.633,0,0,0-.9-.9l-1.579,1.579-1.579-1.579a.633.633,0,1,0-.9.9l1.579,1.579-1.579,1.579a.633.633,0,1,0,.9.9l1.579-1.579,1.579,1.579a.633.633,0,0,0,.9-.9Z" transform="translate(-401.904 -222.33)" fill="#595f51"/>
    </g>
  </g>
</svg>
