<svg xmlns="http://www.w3.org/2000/svg" width="40.566" height="40.565" viewBox="0 0 40.566 40.565">
  <g id="exam-svgrepo-com_1_" data-name="exam-svgrepo-com (1)" transform="translate(0 -0.002)">
    <g id="Group_2065" data-name="Group 2065" transform="translate(12.298 5.616)">
      <g id="Group_2064" data-name="Group 2064">
        <path id="Path_6981" data-name="Path 6981" d="M165.156,70.3h-10.03a1.126,1.126,0,1,0,0,2.252h10.03a1.126,1.126,0,1,0,0-2.252Z" transform="translate(-154 -70.302)" fill="#595f51"/>
      </g>
    </g>
    <g id="Group_2067" data-name="Group 2067" transform="translate(4.903 11.373)">
      <g id="Group_2066" data-name="Group 2066">
        <path id="Path_6982" data-name="Path 6982" d="M79.949,142.4H62.525a1.126,1.126,0,0,0,0,2.252H79.949a1.126,1.126,0,1,0,0-2.252Z" transform="translate(-61.399 -142.402)" fill="#595f51"/>
      </g>
    </g>
    <g id="Group_2069" data-name="Group 2069" transform="translate(4.903 17.131)">
      <g id="Group_2068" data-name="Group 2068">
        <path id="Path_6983" data-name="Path 6983" d="M72.891,214.5H62.526a1.126,1.126,0,0,0,0,2.252H72.9a1.126,1.126,0,0,0-.008-2.252Z" transform="translate(-61.4 -214.502)" fill="#7ac52d"/>
      </g>
    </g>
    <g id="Group_2071" data-name="Group 2071" transform="translate(4.903 28.646)">
      <g id="Group_2070" data-name="Group 2070">
        <path id="Path_6984" data-name="Path 6984" d="M70.384,358.7H62.526a1.126,1.126,0,0,0,0,2.252h7.858a1.126,1.126,0,0,0,0-2.252Z" transform="translate(-61.4 -358.703)" fill="#595f51"/>
      </g>
    </g>
    <g id="Group_2073" data-name="Group 2073" transform="translate(4.903 22.888)">
      <g id="Group_2072" data-name="Group 2072">
        <path id="Path_6985" data-name="Path 6985" d="M69.919,286.6H62.525a1.126,1.126,0,0,0,0,2.252h7.394a1.126,1.126,0,0,0,0-2.252Z" transform="translate(-61.399 -286.602)" fill="#7ac52d"/>
      </g>
    </g>
    <g id="Group_2075" data-name="Group 2075" transform="translate(0 0.002)">
      <g id="Group_2074" data-name="Group 2074" transform="translate(0 0)">
        <path id="Path_6986" data-name="Path 6986" d="M35.359,37.262a11.814,11.814,0,0,0,1.869-18.023l.535-.535.3.3a1.155,1.155,0,0,0,1.6,0,1.133,1.133,0,0,0,0-1.6l-2.212-2.188a1.129,1.129,0,0,0-1.6,1.6l.3.3-.655.655a11.78,11.78,0,0,0-6.029-2.108V1.128A1.125,1.125,0,0,0,28.348,0H8.672a1.158,1.158,0,0,0-.8.327L.327,7.876a1.13,1.13,0,0,0-.327.8v26.16A1.125,1.125,0,0,0,1.126,35.96H20.514a12.071,12.071,0,0,0,1.565,1.286l-1.413,1.413a1.133,1.133,0,0,0,0,1.6,1.187,1.187,0,0,0,1.6,0l1.885-1.877a11.811,11.811,0,0,0,9.151.008l1.877,1.877a1.2,1.2,0,0,0,1.6,0,1.133,1.133,0,0,0,0-1.6ZM7.546,3.851v3.7h-3.7ZM2.252,33.708V9.8h6.42A1.125,1.125,0,0,0,9.8,8.674V2.254H27.222V15.733A11.808,11.808,0,0,0,18.7,33.708Zm26.48,3.338a9.582,9.582,0,1,1,9.574-9.582A9.588,9.588,0,0,1,28.731,37.046Z" transform="translate(0 -0.002)" fill="#595f51"/>
      </g>
    </g>
    <g id="Group_2077" data-name="Group 2077" transform="translate(27.59 19.87)">
      <g id="Group_2076" data-name="Group 2076">
        <path id="Path_6987" data-name="Path 6987" d="M349.716,255.263h-1.964v-5.334a1.126,1.126,0,1,0-2.252,0v6.46a1.125,1.125,0,0,0,1.126,1.126h3.09a1.126,1.126,0,0,0,0-2.252Z" transform="translate(-345.5 -248.803)" fill="#7ac52d"/>
      </g>
    </g>
  </g>
</svg>
