<svg xmlns="http://www.w3.org/2000/svg" width="58.799" height="37.806" viewBox="0 0 58.799 37.806">
  <g id="Group_2386" data-name="Group 2386" transform="translate(-28 -19.191)">
    <path id="people-svgrepo-com" d="M47.257,39.806a3.086,3.086,0,0,0,3.15-3.15c0-3.15-3.15-12.6-15.752-12.6S18.9,33.5,18.9,36.655a3.086,3.086,0,0,0,3.15,3.15Zm-25.135-3.15q-.035,0-.069-.013a9.669,9.669,0,0,1,2.394-5.419c1.739-2.038,4.8-4.02,10.208-4.02s8.465,1.985,10.208,4.02a9.7,9.7,0,0,1,2.394,5.419l-.025.006-.044.006Zm12.533-18.9a6.3,6.3,0,1,0-6.3-6.3A6.3,6.3,0,0,0,34.655,17.752Zm9.451-6.3A9.451,9.451,0,1,1,34.655,2a9.451,9.451,0,0,1,9.451,9.451ZM21.852,24.935a18.525,18.525,0,0,0-3.875-.778q-1.109-.105-2.224-.1C3.15,24.053,0,33.5,0,36.655q0,3.152,3.15,3.15H16.433a7.051,7.051,0,0,1-.681-3.15,14.458,14.458,0,0,1,3.434-9.149,16.671,16.671,0,0,1,2.665-2.571ZM15.5,27.2a17.306,17.306,0,0,0-2.9,9.451H3.15a9.667,9.667,0,0,1,2.394-5.431c1.717-2,4.7-3.957,9.956-4.017ZM4.726,13.027a9.451,9.451,0,1,1,9.451,9.451A9.451,9.451,0,0,1,4.726,13.027Zm9.451-6.3a6.3,6.3,0,1,0,6.3,6.3A6.3,6.3,0,0,0,14.177,6.726Z" transform="translate(28 17.191)" fill="#595f51"/>
    <g id="Group_2385" data-name="Group 2385" transform="translate(75.924 28.825) rotate(30)">
      <path id="Path_7079" data-name="Path 7079" d="M6.99,12.283a3.586,3.586,0,0,1-2.544-1.052l1.7-1.7a1.2,1.2,0,0,0,1.7,0l1.7-1.7a1.2,1.2,0,0,0-1.7-1.7l-1.7,1.7a3.6,3.6,0,0,1-5.09-5.089l1.7-1.7a3.6,3.6,0,0,1,5.089,0l-1.7,1.7a1.2,1.2,0,0,0-1.7,0l-1.7,1.7a1.2,1.2,0,0,0,1.7,1.7l1.7-1.7a3.6,3.6,0,1,1,5.09,5.089l-1.7,1.7A3.589,3.589,0,0,1,6.99,12.283Z" transform="translate(0.645 0.643)" fill="#7ac52d"/>
      <path id="Path_7080" data-name="Path 7080" d="M1.7,0,0,1.7l1.7,1.7,1.7-1.7Z" transform="translate(0 0)" fill="#7ac52d"/>
      <path id="Path_7081" data-name="Path 7081" d="M1.7,0,0,1.7l1.7,1.7,1.7-1.7Z" transform="translate(10.178 10.179)" fill="#7ac52d"/>
    </g>
  </g>
</svg>
